<?xml version="1.0" encoding="utf-8"?>
<!-- Generator: Adobe Illustrator 16.0.4, SVG Export Plug-In . SVG Version: 6.00 Build 0)  -->
<!DOCTYPE svg PUBLIC "-//W3C//DTD SVG 1.1//EN" "http://www.w3.org/Graphics/SVG/1.1/DTD/svg11.dtd">
<svg version="1.1" id="Layer_1" xmlns="http://www.w3.org/2000/svg" xmlns:xlink="http://www.w3.org/1999/xlink" x="0px" y="0px"
	 width="240px" height="240px" viewBox="0 0 240 240" enable-background="new 0 0 240 240" xml:space="preserve">
<path d="M223.905,217.053c-4.944-31.741-50.541-74.545-68.55-85.46c8.182-9.283,20.958-25.409,21.48-51.587
	c0.603-30.067-21.487-63.357-55.274-64.988c-0.131-0.008-0.262-0.008-0.394-0.012l-2.155,0.006c-0.027,0-0.113,0.001-0.14,0.002
	c-0.064,0.001-0.128,0.003-0.191,0.006c-33.688,1.634-55.673,34.921-55.071,64.985c0.523,26.222,13.371,42.379,21.545,51.655
	c-18.469,11.522-63.723,53.997-69.076,85.305c-0.536,3.137,1.468,6.146,4.569,6.858c0.452,0.104,0.904,0.154,1.35,0.154
	c0.187,0,0.374-0.009,0.558-0.026c1.435-0.043,10.17-0.108,50.255-0.108c57.4,0,144.285,0.133,145.156,0.134
	c0.003,0,0.006,0,0.009,0c1.751,0,3.414-0.765,4.555-2.094C223.673,220.551,224.175,218.786,223.905,217.053z M26.04,222.392
	c0.137-0.126,0.274-0.252,0.399-0.391C26.312,222.142,26.177,222.267,26.04,222.392z M22.791,223.925
	c0.277-0.037,0.549-0.096,0.815-0.17C23.331,223.832,23.058,223.892,22.791,223.925z M23.768,223.7
	c0.205-0.063,0.406-0.134,0.603-0.219C24.169,223.568,23.969,223.638,23.768,223.7z M24.644,223.346
	c0.157-0.077,0.313-0.155,0.462-0.246C24.955,223.191,24.8,223.27,24.644,223.346z M25.387,222.91
	c0.143-0.099,0.285-0.196,0.419-0.307C25.67,222.715,25.529,222.812,25.387,222.91z M26.63,221.768
	c0.122-0.147,0.243-0.297,0.35-0.457C26.872,221.474,26.751,221.62,26.63,221.768z M27.173,220.979
	c0.084-0.146,0.174-0.289,0.247-0.443C27.346,220.692,27.257,220.833,27.173,220.979z"/>
</svg>
