<svg width="48" height="48" viewBox="0 0 48 48" xmlns="http://www.w3.org/2000/svg"><title>DF100ADC-F3E9-4171-B1EE-058720FE99CD</title><path d="M24 8C15.163 8 8 15.163 8 24s7.163 16 16 16 16-7.163 16-16S32.837 8 24 8zm-3.404 23.939a4.189 4.189 0 0 1-4.183-4.184v-7.333a.923.923 0 0 1 1.846 0v7.333a2.34 2.34 0 0 0 2.337 2.338 2.34 2.34 0 0 0 2.338-2.338 2.34 2.34 0 0 0-2.338-2.337.923.923 0 0 1 0-1.846 4.188 4.188 0 0 1 4.184 4.183 4.189 4.189 0 0 1-4.184 4.184zm6.366-5.307a.923.923 0 0 1-.923-.924 3.4 3.4 0 0 0-3.396-3.396.923.923 0 0 1 0-1.846 5.248 5.248 0 0 1 5.242 5.242c0 .51-.413.924-.923.924zm4.01.5a.923.923 0 0 1-.923-.923c0-4.36-3.547-7.906-7.907-7.906a.923.923 0 0 1 0-1.847c5.378 0 9.753 4.376 9.753 9.753 0 .51-.413.923-.923.923z" fill="#384048" fill-rule="evenodd"/></svg>