<svg width="48" height="48" viewBox="0 0 48 48" xmlns="http://www.w3.org/2000/svg"><title>1432C116-F41B-42E2-848E-2D44189B9106</title><path d="M27.464 29.463c-1.224 0-2.165-2.34-2.543-4.572 2.778.597 4.687 1.635 4.664 2.544-.028 1.085-.885 1.936-2.035 2.025l-.086.003zm.085-11.05c1.151.088 2.008.94 2.036 2.025.024.909-1.886 1.946-4.664 2.544.378-2.233 1.319-4.573 2.543-4.573.028 0 .057.001.085.003zm-2.747.307V11h10.472c.858 0 1.726.859 1.726 1.617V23.19h-8.087c1.463-.769 2.192-1.705 2.164-2.791-.049-1.865-1.484-3.326-3.415-3.475a2.669 2.669 0 0 0-.198-.007c-1.19 0-2.048.784-2.662 1.803zm-5.604 4.47H11.11V12.725c0-.875.869-1.725 1.726-1.725h10.472v7.72c-.614-1.019-1.473-1.803-2.662-1.803a2.67 2.67 0 0 0-.2.007c-1.929.149-3.365 1.61-3.413 3.475-.028 1.086.701 2.022 2.164 2.79zm9.715 1.492H37v10.465c0 .882-.875 1.71-1.726 1.725H24.802v-7.72c.614 1.02 1.473 1.804 2.662 1.804.065 0 .131-.003.2-.008 1.929-.148 3.364-1.61 3.413-3.475.028-1.085-.7-2.022-2.164-2.79zm-10.387 2.753c-.024-.91 1.886-1.947 4.664-2.544-.378 2.232-1.319 4.572-2.543 4.572-.028 0-.057-.001-.085-.003-1.152-.089-2.008-.94-2.036-2.025zm2.121-9.026c1.224 0 2.165 2.34 2.543 4.572-2.778-.597-4.687-1.635-4.664-2.543.028-1.085.885-1.937 2.035-2.026l.086-.003zm2.662 10.743v7.72H12.73c-.785 0-1.618-.878-1.618-1.725V24.682h8.087c-1.463.769-2.192 1.706-2.164 2.791.048 1.865 1.484 3.327 3.415 3.475.067.005.133.008.198.008 1.19 0 2.048-.785 2.662-1.804z" fill="#384048" fill-rule="evenodd"/></svg>