<svg width="48" height="48" viewBox="0 0 48 48" xmlns="http://www.w3.org/2000/svg"><title>38EB52F4-69A2-4FBF-9B18-E2CD34F9781A</title><path d="M29.652 13.442c1.35 0 2.84.65 3.797 1.654a7.582 7.582 0 0 1 2.106 5.146 7.655 7.655 0 0 1-1.96 5.218l-8.922 9.602-.01.01-.01.011c-.256.287-.524.438-.639.47-.058-.028-.215-.127-.522-.47l-.008-.01-.01-.009-8.92-9.602c-1.364-1.523-2.132-3.425-2.109-5.22.024-1.816.825-3.644 2.256-5.145 1-1.052 2.33-1.655 3.647-1.655 2.58 0 4.416 2.805 4.431 2.829l1.183 1.868 1.236-1.833c.02-.029 2-2.864 4.454-2.864m0-1.442C26.36 12 24 15.5 24 15.5S21.784 12 18.348 12c-1.726 0-3.44.786-4.694 2.103-1.532 1.607-2.623 3.772-2.653 6.12-.03 2.346 1.002 4.558 2.486 6.21l8.929 9.612c.448.5.964.955 1.584.955.62 0 1.283-.454 1.731-.957l8.93-9.612A9.14 9.14 0 0 0 37 20.224a9.042 9.042 0 0 0-2.504-6.123C33.242 12.786 31.377 12 29.652 12" fill="#384048" fill-rule="evenodd"/></svg>