<svg width="25" height="20" viewBox="0 0 25 20" xmlns="http://www.w3.org/2000/svg"><title>6458B170-1EB9-4CBD-815E-0CCB8FC3C538</title><g fill="none" fill-rule="evenodd"><path d="M36-14h-48v48h48z"/><g fill="#384048"><path d="M2.378 0h11.04c1.177 0 2.377 1.147 2.377 2.273v12.818c0 1.253-1.195 2.482-2.412 2.482H8.068a2.92 2.92 0 0 1-5.06 0h-.734C1.169 17.573 0 16.297 0 15.091V2.308C0 1.143 1.178 0 2.378 0zm3.16 17.782c.919 0 1.666-.75 1.666-1.673s-.747-1.674-1.667-1.674c-.919 0-1.667.751-1.667 1.674 0 .923.748 1.673 1.667 1.673zM17.225 4.812h2.754c.334 0 .758.038 1.567.5a.63.63 0 0 1 .163.135l2.72 3.138c.026.03.05.064.07.1.487.852.501 1.777.501 1.88V15.9a.628.628 0 0 1-.628.627h-.762a2.925 2.925 0 0 1-2.892 2.51 2.925 2.925 0 0 1-2.892-2.51h-.602a.628.628 0 0 1-.627-.627V5.44c0-.347.28-.628.628-.628zm3.493 12.97c.92 0 1.667-.75 1.667-1.673s-.748-1.674-1.667-1.674c-.92 0-1.667.751-1.667 1.674 0 .923.748 1.673 1.667 1.673z"/></g></g></svg>