<svg width="48" height="48" viewBox="0 0 48 48" xmlns="http://www.w3.org/2000/svg"><title>8C0484FF-ACF6-4250-A6F2-82E42A125153</title><path d="M26 11.153A13.01 13.01 0 0 1 36.847 22H34.82A11.011 11.011 0 0 0 26 13.181v-2.028zm-4 0A13.01 13.01 0 0 0 11.153 22h2.028A11.011 11.011 0 0 1 22 13.181v-2.028zm4 25.694A13.01 13.01 0 0 0 36.847 26H34.82A11.011 11.011 0 0 1 26 34.819v2.028zm-4 0A13.01 13.01 0 0 1 11.153 26h2.028A11.011 11.011 0 0 0 22 34.819v2.028zM23 9a1 1 0 0 1 2 0v8a1 1 0 0 1-2 0V9zm0 23a1 1 0 0 1 2 0v8a1 1 0 0 1-2 0v-8zm9-7a1 1 0 0 1 0-2h8a1 1 0 0 1 0 2h-8zM9 25a1 1 0 0 1 0-2h8a1 1 0 0 1 0 2H9z" fill-rule="nonzero" fill="#384048"/></svg>