<svg width="48" height="48" viewBox="0 0 48 48" xmlns="http://www.w3.org/2000/svg"><title>D1E47448-5A9D-45C8-8365-C05A970A295F</title><path d="M23.487 22.985l-10.081-7.67-1.501-1.162c.168-.083.372-.153.515-.153h23.449c.134 0 .44 0 .709.115l-1.586 1.2-9.971 7.67c-.136.1-.53.22-.767.22-.238 0-.588-.092-.767-.22zM37.39 15.15l.006.024c.02.033.03.07.03.11v.195l-.023 15.615c0 1.315-.877 2.191-2.192 2.191H13.296c-1.315 0-2.191-.876-2.191-2.191l-.024-15.68v-.194c0-.013.003-.025.005-.038l1.515 1.173.004.003.004.003 10.081 7.67.016.013.017.011c.48.343 1.124.464 1.53.464.439 0 1.13-.167 1.549-.476l.01-.008.01-.008 9.967-7.667 1.6-1.21z" fill="#384048" fill-rule="evenodd"/></svg>