<svg width="48" height="48" viewBox="0 0 48 48" xmlns="http://www.w3.org/2000/svg"><title>80B4D823-FAF4-4AD3-9BF9-295D1C438748</title><path d="M24 8C15.163 8 8 15.163 8 24s7.163 16 16 16 16-7.163 16-16S32.837 8 24 8zm1.33 20.145c-1.07 0-2.074-.578-2.418-1.233 0 0-.575 2.28-.696 2.72-.429 1.555-1.69 3.112-1.787 3.239-.069.088-.22.06-.235-.057-.028-.198-.349-2.16.03-3.76l1.272-5.394s-.315-.632-.315-1.566c0-1.467.85-2.562 1.908-2.562.9 0 1.335.676 1.335 1.486 0 .905-.576 2.258-.874 3.512-.248 1.05.527 1.906 1.562 1.906 1.875 0 3.138-2.408 3.138-5.262 0-2.169-1.46-3.792-4.118-3.792-3.001 0-4.873 2.239-4.873 4.74 0 .862.255 1.47.653 1.94.183.217.21.304.143.552-.049.183-.157.62-.202.794-.066.251-.27.34-.496.248-1.382-.564-2.026-2.079-2.026-3.78 0-2.812 2.37-6.184 7.073-6.184 3.778 0 6.266 2.734 6.266 5.67 0 3.883-2.16 6.783-5.34 6.783z" fill="#384048" fill-rule="evenodd"/></svg>