<svg width="48" height="48" viewBox="0 0 48 48" xmlns="http://www.w3.org/2000/svg"><title>9C395E0A-63BE-4A89-A5D1-64C036CFEC00</title><path d="M34.292 15.5c1.594 0 2.708 1.114 2.708 2.708v7.917c0 1.595-1.114 2.708-2.708 2.708h-.846l.325 3.75c0 1.25-.834 2.084-2.084 2.084H17.313c-1.25 0-2.083-.834-2.083-2.084l.322-3.75h-.843c-1.594 0-2.708-1.113-2.708-2.708v-8.02c0-1.51 1.14-2.605 2.708-2.605h19.584zm-2.605 17.917c.546 0 .818-.258.833-.787l-.932-10.772a1.244 1.244 0 0 1-.005-.108c0-.56-.272-.833-.833-.833h-12.5c-.311 0-.833.094-.833.729 0 .035-.002.071-.005.107l-.932 10.876c.014.53.287.788.832.788h14.375zM18.876 14.25a.625.625 0 1 1 0-1.25h11.25a.625.625 0 1 1 0 1.25h-11.25zm1.25 11.667a.625.625 0 0 1 0-1.25h8.75a.625.625 0 0 1 0 1.25h-8.75zm9.167 3.333a.625.625 0 0 1 0 1.25h-9.584a.625.625 0 0 1 0-1.25h9.584z" fill="#384048" fill-rule="evenodd"/></svg>