<?xml version="1.0" encoding="UTF-8" standalone="no"?>
<svg width="26px" height="26px" viewBox="0 0 26 26" version="1.1" xmlns="http://www.w3.org/2000/svg" xmlns:xlink="http://www.w3.org/1999/xlink">
    <!-- Generator: sketchtool 42 (36781) - http://www.bohemiancoding.com/sketch -->
    <title>534CFD99-0060-4843-BFCE-7D9BA55C271E</title>
    <desc>Created with sketchtool.</desc>
    <defs></defs>
    <g id="Design-Foundations" stroke="none" stroke-width="1" fill="none" fill-rule="evenodd">
        <g id="Design-Foundations---Iconography-Glyph" transform="translate(-449.000000, -301.000000)">
            <g id="Dark" transform="translate(54.000000, 50.000000)">
                <g id="icon/dark/sameday-pickup" transform="translate(384.000000, 240.000000)">
                    <g id="Path">
                        <rect id="Bounding-Box" x="0" y="0" width="48" height="48"></rect>
                        <g id="sameday-pickup-fill" transform="translate(11.000000, 11.000000)" fill="#384048">
                            <path d="M24.51925,15.473125 L24.927875,15.064625 C25.221,14.771625 25.221,14.296625 24.928,14.004 C24.635125,13.710875 24.160125,13.711125 23.8675,14.003875 L23.433875,14.4375 C22.80325,13.96375 22.081625,13.605625 21.300375,13.39125 L21.300375,12.729 C21.300375,11.797 20.545,11.0415 19.612875,11.0415 C18.681125,11.0415 17.925375,11.797 17.925375,12.729 L17.925375,13.39125 C15.228875,14.131 13.246625,16.598125 13.246625,19.5295 C13.246625,23.045625 16.097,25.896 19.612875,25.896 C23.129,25.896 25.979375,23.045625 25.979375,19.5295 C25.979125,17.988125 25.431,16.57475 24.51925,15.473125 L24.51925,15.473125 Z M19.61275,24.396 C16.929375,24.396 14.7465,22.213 14.7465,19.5295 C14.7465,16.846375 16.929375,14.66325 19.61275,14.66325 C22.296125,14.66325 24.479125,16.846375 24.479125,19.5295 C24.479125,22.213 22.296125,24.396 19.61275,24.396 L19.61275,24.396 Z" id="Fill-1"></path>
                            <path d="M20.36275,17.270875 C20.36275,16.85675 20.02675,16.520875 19.61275,16.520875 C19.198625,16.520875 18.86275,16.85675 18.86275,17.270875 L18.86275,19.52975 C18.86275,19.94375 19.198625,20.27975 19.61275,20.27975 L23.270625,20.27975 C23.68475,20.27975 24.020625,19.94375 24.020625,19.52975 C24.020625,19.115625 23.68475,18.77975 23.270625,18.77975 L20.36275,18.77975 L20.36275,17.270875" id="Fill-2"></path>
                            <path d="M12.781,21.516625 C12.777125,21.5035 12.77325,21.489875 12.769625,21.476625 C12.593125,20.8575 12.496625,20.204875 12.496625,19.529875 C12.496625,16.528875 14.3935,13.85775 17.17525,12.844 L17.17525,12.72925 C17.17525,11.38525 18.26875,10.29175 19.61275,10.29175 C19.995625,10.29175 20.356875,10.382875 20.679625,10.541 L20.680875,10.541625 C20.80975,10.604875 20.93225,10.67875 21.047125,10.762875 C21.06525,10.776 21.082875,10.78925 21.100625,10.80275 C21.132125,10.827 21.163375,10.851375 21.193375,10.877125 C21.22725,10.906125 21.260125,10.9365 21.2925,10.967375 C21.29825,10.97275 21.30425,10.977625 21.309875,10.983 L20.99175,3.6625 C20.99175,3.6625 20.99175,3.301375 20.6305,2.940375 C20.319875,2.6295 18.77,0.63675 18.4645,0.322875 C18.289125,0.142875 18.10325,0.052125 17.832625,0.052125 L3.933,0.052125 C3.809375,0.052125 3.481875,0.1425 3.30125,0.322875 C2.975,0.649125 1.315625,2.57925 1.044875,2.940375 C0.774125,3.301375 0.774125,3.662375 0.774125,3.662375 L0.052125,20.269375 C0.055,20.999875 0.77525,21.70475 1.49625,21.7135 L12.84075,21.7135 C12.84075,21.713375 12.840625,21.713125 12.840625,21.713 C12.819625,21.648 12.800125,21.582375 12.781,21.516625 L12.781,21.516625 Z M10.86975,13.784875 C8.674375,13.784875 6.91075,12.7875 5.76825,10.8995 C4.932625,9.51875 4.73275,8.14225 4.724625,8.084375 C4.66725,7.674125 4.953375,7.295125 5.3635,7.23775 C5.773375,7.180875 6.151625,7.465625 6.209875,7.874875 C6.236375,8.057 6.897625,12.284875 10.87,12.284875 L10.881125,12.284875 C12.54275,12.2815 13.829125,11.551125 14.7045,10.114 C15.386,8.995125 15.55425,7.883375 15.556,7.87225 C15.615875,7.46225 15.997125,7.178375 16.4065,7.238375 C16.816375,7.29825 17.10025,7.678875 17.040375,8.08875 C17.032,8.146375 16.8245,9.517125 15.985625,10.89425 C14.836625,12.78075 13.0725,13.780375 10.88425,13.784875 L10.86975,13.784875 L10.86975,13.784875 Z" id="Fill-3"></path>
                        </g>
                    </g>
                </g>
            </g>
        </g>
    </g>
</svg>