<?xml version="1.0" encoding="utf-8"?>
<!-- Generator: Adobe Illustrator 16.0.4, SVG Export Plug-In . SVG Version: 6.00 Build 0)  -->
<!DOCTYPE svg PUBLIC "-//W3C//DTD SVG 1.1//EN" "http://www.w3.org/Graphics/SVG/1.1/DTD/svg11.dtd">
<svg version="1.1" id="Layer_1" xmlns="http://www.w3.org/2000/svg" xmlns:xlink="http://www.w3.org/1999/xlink" x="0px" y="0px"
	 width="240px" height="240px" viewBox="0 0 240 240" enable-background="new 0 0 240 240" xml:space="preserve">
<path fill="#333333" d="M220.076,196.598c-5.859-5.425-50.965-49.314-61.632-59.697c8.537-12.508,13.536-27.624,13.536-43.91
	C171.979,49.917,137.062,15,93.99,15C50.917,15,16,49.917,16,92.99c0,43.072,34.917,77.99,77.99,77.99
	c15.27,0,29.502-4.405,41.529-11.989c9.7,9.621,55.219,54.741,61.426,60.432c2.816,2.581,6.206,3.85,9.664,3.85
	c4.298-0.001,8.699-1.96,12.229-5.791C225.083,210.704,225.615,201.726,220.076,196.598z M28,92.99C28,56.603,57.603,27,93.99,27
	c36.387,0,65.99,29.603,65.99,65.99c0,36.387-29.604,65.99-65.99,65.99C57.603,158.98,28,129.377,28,92.99z M208.524,210.617
	c-2.018,1.291-2.891,0.489-3.47-0.04c-5.731-5.254-48.047-47.18-59.804-58.837c1.97-1.721,3.854-3.536,5.642-5.444
	c12.067,11.747,54.947,53.465,60.997,59.075C212.071,206.198,210.991,209.035,208.524,210.617z"/>
</svg>
