<?xml version="1.0" encoding="utf-8"?>
<!-- Generator: Adobe Illustrator 16.0.4, SVG Export Plug-In . SVG Version: 6.00 Build 0)  -->
<!DOCTYPE svg PUBLIC "-//W3C//DTD SVG 1.1//EN" "http://www.w3.org/Graphics/SVG/1.1/DTD/svg11.dtd">
<svg version="1.1" id="Layer_1" xmlns="http://www.w3.org/2000/svg" xmlns:xlink="http://www.w3.org/1999/xlink" x="0px" y="0px"
	 width="240px" height="240px" viewBox="0 0 240 240" enable-background="new 0 0 240 240" xml:space="preserve">
<g>
	<path fill="#333333" d="M120,15C62.562,15,16,61.562,16,119c0,57.438,46.562,104,104,104c57.438,0,104-46.562,104-104
		C224,61.562,177.438,15,120,15z M120,211c-50.729,0-92-41.271-92-92c0-50.729,41.271-92,92-92c50.729,0,92,41.271,92,92
		C212,169.729,170.729,211,120,211z"/>
	<path fill="#333333" d="M108.111,89.317v14.684H90.917v19.91h17.193V175h20.562v-51.088h17.148l2.565-19.91h-19.715V91.29
		c0-5.765,1.601-9.693,9.866-9.693l10.544-0.005V63.784C147.257,63.542,141,63,133.719,63C118.517,63,108.111,72.278,108.111,89.317
		z"/>
</g>
</svg>
