<?xml version="1.0" encoding="utf-8"?>
<!-- Generator: Adobe Illustrator 16.0.4, SVG Export Plug-In . SVG Version: 6.00 Build 0)  -->
<!DOCTYPE svg PUBLIC "-//W3C//DTD SVG 1.1//EN" "http://www.w3.org/Graphics/SVG/1.1/DTD/svg11.dtd">
<svg version="1.1" id="Layer_1" xmlns="http://www.w3.org/2000/svg" xmlns:xlink="http://www.w3.org/1999/xlink" x="0px" y="0px"
	 width="240px" height="240px" viewBox="0 0 240 240" enable-background="new 0 0 240 240" xml:space="preserve">
<g>
	<path fill="#333333" d="M120,15C62.562,15,16,61.562,16,119c0,57.438,46.562,104,104,104c57.438,0,104-46.562,104-104
		C224,61.562,177.438,15,120,15z M120,211c-50.729,0-92-41.271-92-92c0-50.729,41.271-92,92-92c50.729,0,92,41.271,92,92
		C212,169.729,170.729,211,120,211z"/>
	<path fill="#333333" d="M100.877,115.93c-3.313,0-6,2.687-6,6s2.687,6,6,6c8.377,0,15.193,6.815,15.193,15.193
		s-6.816,15.193-15.193,15.193c-8.378,0-15.195-6.815-15.195-15.193V95.455c0-3.313-2.687-6-6-6s-6,2.687-6,6v47.668
		c0,14.994,12.2,27.193,27.195,27.193c14.995,0,27.193-12.199,27.193-27.193S115.872,115.93,100.877,115.93z"/>
	<path fill="#333333" d="M114.181,95.747c-3.313,0-6,2.687-6,6s2.687,6,6,6c12.171,0,22.073,9.902,22.073,22.073
		c0,3.313,2.687,6,6,6s6-2.687,6-6C148.254,111.032,132.969,95.747,114.181,95.747z"/>
	<path fill="#333333" d="M110.923,69.683c-3.313,0-6,2.687-6,6s2.687,6,6,6c28.339,0,51.394,23.055,51.394,51.394
		c0,3.313,2.687,6,6,6s6-2.687,6-6C174.316,98.122,145.878,69.683,110.923,69.683z"/>
</g>
</svg>
