<?xml version="1.0" encoding="utf-8"?>
<!-- Generator: Adobe Illustrator 16.0.4, SVG Export Plug-In . SVG Version: 6.00 Build 0)  -->
<!DOCTYPE svg PUBLIC "-//W3C//DTD SVG 1.1//EN" "http://www.w3.org/Graphics/SVG/1.1/DTD/svg11.dtd">
<svg version="1.1" id="Layer_1" xmlns="http://www.w3.org/2000/svg" xmlns:xlink="http://www.w3.org/1999/xlink" x="0px" y="0px"
	 width="240px" height="240px" viewBox="0 0 240 240" enable-background="new 0 0 240 240" xml:space="preserve">
<g>
	<path fill="#333333" d="M120,15C62.562,15,16,61.562,16,119c0,57.438,46.562,104,104,104c57.438,0,104-46.562,104-104
		C224,61.562,177.438,15,120,15z M120,211c-50.729,0-92-41.271-92-92c0-50.729,41.271-92,92-92c50.729,0,92,41.271,92,92
		C212,169.729,170.729,211,120,211z"/>
	<path fill="#333333" d="M171.907,85.445c5.42-3.249,9.584-8.394,11.543-14.525c-5.072,3.009-10.691,5.193-16.671,6.371
		C161.989,72.188,155.166,69,147.614,69c-14.5,0-26.255,11.755-26.255,26.254c0,2.059,0.23,4.062,0.68,5.983
		c-21.821-1.094-41.167-11.547-54.116-27.431c-2.261,3.877-3.555,8.388-3.555,13.199c0,9.109,4.635,17.145,11.68,21.853
		c-4.304-0.136-8.352-1.317-11.892-3.284c-0.002,0.11-0.002,0.22-0.002,0.33c0,12.721,9.051,23.333,21.062,25.745
		c-2.204,0.6-4.523,0.92-6.917,0.92c-1.692,0-3.337-0.163-4.94-0.471c3.341,10.43,13.037,18.021,24.526,18.233
		c-8.986,7.042-20.306,11.237-32.607,11.237c-2.12,0-4.209-0.123-6.264-0.365C70.633,168.652,84.434,173,99.261,173
		c48.292,0,74.7-40.007,74.7-74.701c0-1.139-0.025-2.271-0.076-3.397c5.131-3.701,9.581-8.326,13.102-13.591
		C182.277,83.399,177.216,84.811,171.907,85.445z"/>
</g>
</svg>
