<?xml version="1.0" encoding="utf-8"?>
<!-- Generator: Adobe Illustrator 16.0.4, SVG Export Plug-In . SVG Version: 6.00 Build 0)  -->
<!DOCTYPE svg PUBLIC "-//W3C//DTD SVG 1.1//EN" "http://www.w3.org/Graphics/SVG/1.1/DTD/svg11.dtd">
<svg version="1.1" id="Layer_1" xmlns="http://www.w3.org/2000/svg" xmlns:xlink="http://www.w3.org/1999/xlink" x="0px" y="0px"
	 width="240px" height="240px" viewBox="0 0 240 240" enable-background="new 0 0 240 240" xml:space="preserve">
<g>
	<path fill="#333333" d="M120,15C62.562,15,16,61.562,16,119c0,57.438,46.562,104,104,104c57.438,0,104-46.562,104-104
		C224,61.562,177.438,15,120,15z M120,211c-50.729,0-92-41.271-92-92c0-50.729,41.271-92,92-92c50.729,0,92,41.271,92,92
		C212,169.729,170.729,211,120,211z"/>
	<path fill="#333333" d="M122.623,65c-30.565,0-45.975,21.914-45.975,40.188c0,11.064,4.188,20.91,13.173,24.578
		c1.473,0.603,2.792,0.021,3.221-1.61c0.296-1.13,0.999-3.978,1.314-5.162c0.431-1.614,0.263-2.179-0.926-3.586
		c-2.591-3.057-4.247-7.013-4.247-12.616c0-16.256,12.165-30.811,31.674-30.811c17.274,0,26.77,10.556,26.77,24.652
		c0,18.549-8.211,34.205-20.398,34.205c-6.729,0-11.767-5.565-10.152-12.394c1.935-8.148,5.68-16.943,5.68-22.826
		c0-5.266-2.827-9.657-8.676-9.657c-6.88,0-12.407,7.117-12.407,16.651c0,6.071,2.052,10.18,2.052,10.18s-7.041,29.83-8.274,35.054
		c-2.459,10.405-0.371,23.16-0.194,24.448c0.104,0.764,1.085,0.943,1.528,0.367c0.636-0.827,8.83-10.943,11.615-21.053
		c0.788-2.86,4.526-17.683,4.526-17.683c2.235,4.263,8.768,8.019,15.715,8.019c20.678,0,34.711-18.854,34.711-44.089
		C163.352,82.771,147.186,65,122.623,65z"/>
</g>
</svg>
