<?xml version="1.0" encoding="utf-8"?>
<!-- Generator: Adobe Illustrator 16.0.4, SVG Export Plug-In . SVG Version: 6.00 Build 0)  -->
<!DOCTYPE svg PUBLIC "-//W3C//DTD SVG 1.1//EN" "http://www.w3.org/Graphics/SVG/1.1/DTD/svg11.dtd">
<svg version="1.1" id="Layer_1" xmlns="http://www.w3.org/2000/svg" xmlns:xlink="http://www.w3.org/1999/xlink" x="0px" y="0px"
	 width="240px" height="240px" viewBox="0 0 240 240" enable-background="new 0 0 240 240" xml:space="preserve">
<g>
	<path fill="#333333" d="M120,15C62.562,15,16,61.562,16,119c0,57.438,46.562,104,104,104c57.438,0,104-46.562,104-104
		C224,61.562,177.438,15,120,15z M120,211c-50.729,0-92-41.271-92-92c0-50.729,41.271-92,92-92c50.729,0,92,41.271,92,92
		C212,169.729,170.729,211,120,211z"/>
	<polygon fill="#333333" points="160.848,97.937 153.045,97.937 153.045,110.327 140.666,110.327 140.666,118.123 153.045,118.123 
		153.045,130.959 160.848,130.959 160.848,118.123 173.682,118.123 173.682,110.327 160.848,110.327 	"/>
	<path fill="#333333" d="M123.884,127.63c-10.602-7.742-13.201-12.109-3.063-19.947c5.701-4.413,9.699-10.393,9.699-17.666
		c0-7.915-3.23-15.008-9.318-18.675h8.626L137.169,64h-32.866c-20.515,0-30.57,12.214-30.57,25.741
		c0,13.815,9.475,24.662,28.003,24.662c-2.881,5.798-1.718,11.134,2.977,14.957c-31.633,0-38.394,13.867-38.394,24.562
		c0,13.844,15.915,22.078,35.018,22.078c26.104,0,36.483-13.839,36.483-25.203C137.82,141.534,134.365,135.47,123.884,127.63z
		 M86.093,89.445c-1.532-11.641,4.41-20.542,13.262-20.274c8.861,0.268,16.434,9.81,17.964,21.442
		c1.534,11.639-3.571,19.114-12.43,18.856C96.037,109.204,87.618,101.076,86.093,89.445z M101.427,169.825
		c-13.204,0-22.728-8.333-22.728-18.378c0-9.83,11.186-18.321,24.385-18.172c14.625,0,23.361,9.113,23.361,18.684
		C126.445,161.994,118.294,169.825,101.427,169.825z"/>
</g>
</svg>
