<?xml version="1.0" encoding="utf-8"?>
<!-- Generator: Adobe Illustrator 16.0.4, SVG Export Plug-In . SVG Version: 6.00 Build 0)  -->
<!DOCTYPE svg PUBLIC "-//W3C//DTD SVG 1.1//EN" "http://www.w3.org/Graphics/SVG/1.1/DTD/svg11.dtd">
<svg version="1.1" id="Layer_1" xmlns="http://www.w3.org/2000/svg" xmlns:xlink="http://www.w3.org/1999/xlink" x="0px" y="0px"
	 width="240px" height="240px" viewBox="0 0 240 240" enable-background="new 0 0 240 240" xml:space="preserve">
<g>
	<path fill="#333333" d="M120,15C62.562,15,16,61.562,16,119c0,57.438,46.562,104,104,104c57.438,0,104-46.562,104-104
		C224,61.562,177.438,15,120,15z M120,211c-50.729,0-92-41.271-92-92c0-50.729,41.271-92,92-92c50.729,0,92,41.271,92,92
		C212,169.729,170.729,211,120,211z"/>
	<path fill="#333333" d="M176.337,81.566c-4.759-4.984-10.092-5.008-12.536-5.3C146.291,75,120.028,75,120.028,75h-0.055
		c0,0-26.264,0-43.772,1.265c-2.446,0.292-7.776,0.316-12.536,5.3c-3.751,3.796-4.973,12.418-4.973,12.418
		s-1.251,10.125-1.251,20.25v9.492c0,10.127,1.251,20.25,1.251,20.25s1.222,8.621,4.973,12.42c4.76,4.982,11.012,4.826,13.796,5.349
		C87.471,162.703,120,163,120,163s26.291-0.039,43.801-1.307c2.444-0.291,7.777-0.315,12.536-5.299
		c3.75-3.799,4.974-12.42,4.974-12.42s1.248-10.123,1.248-20.25v-9.492c0-10.124-1.248-20.249-1.248-20.249
		S180.087,85.361,176.337,81.566z M107.084,135.229l-0.006-35.153l33.807,17.639L107.084,135.229z"/>
</g>
</svg>
