<?xml version="1.0" encoding="UTF-8" standalone="no"?>
<svg width="28px" height="27px" viewBox="0 0 28 27" version="1.1" xmlns="http://www.w3.org/2000/svg" xmlns:xlink="http://www.w3.org/1999/xlink">
    <!-- Generator: sketchtool 42 (36781) - http://www.bohemiancoding.com/sketch -->
    <title>C21A5B38-2758-4ED4-9609-77E2C1B1B7E4</title>
    <desc>Created with sketchtool.</desc>
    <defs></defs>
    <g id="Design-Foundations" stroke="none" stroke-width="1" fill="none" fill-rule="evenodd">
        <g id="Design-Foundations---Iconography-Glyph" transform="translate(-64.000000, -349.000000)">
            <g id="Dark" transform="translate(54.000000, 50.000000)">
                <g id="icon/dark/store" transform="translate(0.000000, 288.000000)">
                    <g id="Path">
                        <rect id="Bounding-Box" x="0" y="0" width="48" height="48"></rect>
                        <g id="store-services-fill" transform="translate(10.000000, 11.000000)" fill="#384048">
                            <path d="M25.7833333,0.75 L2.21666667,0.75 C0.890866667,0.75 0,1.65377778 0,2.99879227 L0,7.02294686 C0,8.00898309 0.564783333,8.80647585 1.4,9.12308213 L1.4,23.2379227 C1.4,24.4978382 2.27231667,25.25 3.73333333,25.25 L5.13333333,25.25 L5.13333333,13.3897512 C5.13333333,12.0801256 6.00623333,11.1654589 7.2562,11.1654589 L20.5996,11.1654589 C21.9345,11.1654589 22.8666667,12.049471 22.8666667,13.3153043 L22.8666667,25.25 L24.6166667,25.25 C26.04385,25.25 26.6,24.7024783 26.6,23.2971014 L26.6,9.12308213 C27.4352167,8.80647585 28,8.00898309 28,7.02294686 L28,2.88043478 C28,1.56631159 27.1506667,0.75 25.7833333,0.75 L25.7833333,0.75 Z M26.6,7.02294686 C26.6,7.51850966 26.2718167,7.85144928 25.7833333,7.85144928 L2.21666667,7.85144928 C1.72818333,7.85144928 1.4,7.51850966 1.4,7.02294686 L1.4,2.99879227 C1.4,2.4413285 1.66716667,2.17028986 2.21666667,2.17028986 L25.7833333,2.17028986 C26.5368833,2.17028986 26.6,2.52110145 26.6,2.88043478 L26.6,7.02294686 Z M6.46666667,13.1581629 C6.46666667,12.8218182 6.56382184,12.2575758 7.21445977,12.2575758 L13.4666667,12.2575758 L13.4666667,26.4431818 L6.46666667,26.4431818 L6.46666667,13.1581629 Z M20.9030345,12.2575758 C21.3122931,12.2575758 21.8,12.3992992 21.8,13.0747727 L21.8,26.4431818 L14.8,26.4431818 L14.8,12.2575758 L20.9030345,12.2575758 Z" id="Combined-Shape"></path>
                        </g>
                    </g>
                </g>
            </g>
        </g>
    </g>
</svg>