<?xml version="1.0" encoding="UTF-8" standalone="no"?>
<svg width="25px" height="20px" viewBox="0 0 25 20" version="1.1" xmlns="http://www.w3.org/2000/svg" xmlns:xlink="http://www.w3.org/1999/xlink">
    <!-- Generator: sketchtool 42 (36781) - http://www.bohemiancoding.com/sketch -->
    <title>BAD06B59-AF93-4AF7-A8F7-1DA9B715A1E7</title>
    <desc>Created with sketchtool.</desc>
    <defs></defs>
    <g id="Design-Foundations" stroke="none" stroke-width="1" fill="none" fill-rule="evenodd">
        <g id="Design-Foundations---Iconography-Glyph" transform="translate(-193.000000, -400.000000)">
            <g id="Dark" transform="translate(54.000000, 50.000000)">
                <g id="icon/dark/truck" transform="translate(128.000000, 336.000000)">
                    <g id="Path">
                        <rect id="Bounding-Box" x="0" y="0" width="48" height="48"></rect>
                        <g id="truck-fill" transform="translate(11.000000, 14.000000)" fill="#384048">
                            <path d="M22.6221757,0 L11.5829498,0 C10.4051255,0 9.20502092,1.14728033 9.20502092,2.27332636 L9.20502092,15.0905858 C9.20502092,16.3435146 10.3998954,17.5732218 11.617364,17.5732218 L16.9323222,17.5732218 C17.4376569,18.448431 18.3812762,19.0376569 19.4625523,19.0376569 C20.5438285,19.0376569 21.4874477,18.448431 21.9927824,17.5732218 L22.7264644,17.5732218 C23.8314854,17.5732218 25,16.2971757 25,15.090795 L25,2.30774059 C25,1.14309623 23.8219665,0 22.6221757,0 L22.6221757,0 Z M19.4625523,17.7824268 C18.54341,17.7824268 17.7955021,17.03159 17.7955021,16.1087866 C17.7955021,15.1859833 18.5430962,14.4351464 19.4625523,14.4351464 C20.3816946,14.4351464 21.1297071,15.1859833 21.1297071,16.1087866 C21.1297071,17.03159 20.3820084,17.7824268 19.4625523,17.7824268 L19.4625523,17.7824268 Z" id="Fill-1"></path>
                            <path d="M7.77541841,4.81171548 L5.0209205,4.81171548 C4.68723849,4.81171548 4.26349372,4.85041841 3.4542887,5.31286611 C3.39288703,5.34801255 3.33776151,5.39330544 3.29142259,5.44675732 L0.571757322,8.58483264 C0.545083682,8.61569038 0.521443515,8.64905858 0.501150628,8.68451883 C0.0140167364,9.53671548 0,10.4623431 0,10.5648536 L0,15.8995816 C0,16.2460251 0.280962343,16.5271967 0.627615063,16.5271967 L1.39006276,16.5271967 C1.59267782,17.9464435 2.81004184,19.0376569 4.28211297,19.0376569 C5.7541841,19.0376569 6.97154812,17.9464435 7.17416318,16.5271967 L7.77552301,16.5271967 C8.12207113,16.5271967 8.40313808,16.2460251 8.40313808,15.8995816 L8.40313808,5.43933054 C8.40303347,5.09267782 8.12207113,4.81171548 7.77541841,4.81171548 L7.77541841,4.81171548 Z M4.28211297,17.7824268 C3.36286611,17.7824268 2.61506276,17.03159 2.61506276,16.1087866 C2.61506276,15.1859833 3.36286611,14.4351464 4.28211297,14.4351464 C5.20135983,14.4351464 5.94916318,15.1859833 5.94916318,16.1087866 C5.94916318,17.03159 5.20135983,17.7824268 4.28211297,17.7824268 L4.28211297,17.7824268 Z" id="Fill-2"></path>
                        </g>
                    </g>
                </g>
            </g>
        </g>
    </g>
</svg>