<svg width="48" height="48" viewBox="0 0 48 48" xmlns="http://www.w3.org/2000/svg"><title>86CC0931-FA08-4A92-9304-BA35D3FFC637</title><g fill="none" fill-rule="evenodd"><path d="M0 0h48v48H0z"/><path d="M36.478 32.807l-11.039-21a1.945 1.945 0 0 0-1.692-1.007c-.696 0-1.236.385-1.585 1.004L11.118 32.79c-.348.62-.45 1.409-.103 2.03.35.62 1.034.98 1.729.98H34.53c.848 0 1.71-.38 2.06-1.003.344-.62.233-1.37-.113-1.99zM23.15 17.961c0-.396.291-.717.65-.717.359 0 .65.321.65.717v10.257c0 .397-.291.718-.65.718-.359 0-.65-.321-.65-.718V17.961zm.65 14.271c-.539 0-.976-.449-.976-1.003 0-.554.437-1.004.976-1.004.539 0 .976.45.976 1.004s-.437 1.003-.976 1.003z" fill="#EEAD1F"/></g></svg>